<svg width="17" height="18" viewBox="0 0 17 18" fill="none" xmlns="http://www.w3.org/2000/svg">
  <path fill-rule="evenodd" clip-rule="evenodd" d="M8.94 0C6.73086 0 4.94 1.79086 4.94 4V5C4.94 7.2091 6.73086 9 8.94 9C11.1491 9 12.94 7.2091 12.94 5V4C12.94 1.79086 11.1491 0 8.94 0ZM6.44 4C6.44 2.61929 7.5593 1.5 8.94 1.5C10.3207 1.5 11.44 2.61929 11.44 4V5C11.44 6.38071 10.3207 7.5 8.94 7.5C7.5593 7.5 6.44 6.38071 6.44 5V4ZM2.44232 16.3686C2.91321 13.2577 5.95803 11.5 8.9422 11.5C11.9258 11.5 14.971 13.2577 15.4419 16.3686C15.4446 16.3866 15.4425 16.3972 15.44 16.4048C15.437 16.4137 15.4303 16.4269 15.4159 16.442C15.3853 16.4741 15.3294 16.5039 15.2571 16.5039H2.62718C2.55487 16.5039 2.49898 16.4741 2.46838 16.442C2.45394 16.4269 2.44726 16.4137 2.44427 16.4048C2.44174 16.3972 2.43961 16.3865 2.44232 16.3686ZM8.9422 10C5.51321 10 1.58037 12.0404 0.959219 16.1441C0.796239 17.2208 1.69727 18.0039 2.62718 18.0039H15.2571C16.187 18.0039 17.088 17.2208 16.925 16.1441C16.3038 12.0404 12.3706 10 8.9422 10Z" fill="#1F2026" />
</svg>