<svg width="21" height="18" viewBox="0 0 21 18" fill="none" xmlns="http://www.w3.org/2000/svg">
  <path fill-rule="evenodd" clip-rule="evenodd" d="M5.79999 1.5C3.56934 1.5 1.79999 3.30906 1.79999 5.5C1.79999 6.4282 2.17683 7.4436 2.84869 8.5105C3.51691 9.5716 4.44147 10.6274 5.45126 11.6219C6.85768 13.007 8.33179 14.1879 9.47079 15.1003C9.77339 15.3427 10.0523 15.5661 10.3 15.7694C10.5477 15.5661 10.8266 15.3427 11.1292 15.1003C12.2682 14.1879 13.7423 13.007 15.1487 11.6219C16.1585 10.6274 17.0831 9.5716 17.7513 8.5105C18.4232 7.4436 18.8 6.4282 18.8 5.5C18.8 3.30898 17.0314 1.5 14.8 1.5C12.6473 1.5 11.3738 3.20226 11.0262 3.74742C10.6889 4.27655 9.91109 4.27653 9.57379 3.74742C9.22619 3.20225 7.95272 1.5 5.79999 1.5ZM0.299988 5.5C0.299988 2.49094 2.73064 0 5.79999 0C8.03142 0 9.52489 1.30207 10.3 2.21581C11.0751 1.30207 12.5686 0 14.8 0C17.8702 0 20.3 2.49102 20.3 5.5C20.3 6.8218 19.7706 8.1189 19.0206 9.3098C18.2669 10.5066 17.254 11.6539 16.2013 12.6906C14.7429 14.1269 13.108 15.4384 11.9502 16.3672C11.4649 16.7565 11.0634 17.0786 10.7939 17.3144C10.5111 17.5619 10.0889 17.5619 9.80609 17.3144C9.53659 17.0786 9.13509 16.7565 8.64979 16.3672C7.492 15.4384 5.85711 14.1269 4.39872 12.6906C3.34601 11.6539 2.33307 10.5066 1.57941 9.3098C0.829398 8.1189 0.299988 6.8218 0.299988 5.5Z" fill="#1F2026" />
</svg>