<svg width="12" height="16" viewBox="0 0 12 16" fill="none" xmlns="http://www.w3.org/2000/svg">
  <path fill-rule="evenodd" clip-rule="evenodd" d="M1 6.5C1 3.73858 3.23858 1.5 6 1.5C8.7614 1.5 11 3.73858 11 6.5C11 8.7317 9.8079 10.7429 8.5153 12.2262C7.8738 12.9623 7.2212 13.5525 6.7097 13.9561C6.4536 14.1582 6.2375 14.3098 6.0802 14.4082C6.0504 14.4268 6.0237 14.4429 6 14.4567C5.9763 14.4429 5.9496 14.4268 5.9198 14.4082C5.7625 14.3098 5.5464 14.1582 5.2903 13.9561C4.7788 13.5525 4.1262 12.9623 3.48471 12.2262C2.19208 10.7429 1 8.7317 1 6.5ZM6 0.5C2.68629 0.5 0 3.18629 0 6.5C0 9.0808 1.36827 11.3196 2.73081 12.8832C3.41691 13.6705 4.1156 14.303 4.6709 14.7411C4.9482 14.96 5.1944 15.134 5.3897 15.2561C5.4866 15.3167 5.5778 15.3688 5.6582 15.4076C5.6982 15.4269 5.7428 15.4465 5.7889 15.4623C5.8251 15.4747 5.9044 15.5 6 15.5C6.0956 15.5 6.1749 15.4747 6.2111 15.4623C6.2572 15.4465 6.3018 15.4269 6.3418 15.4076C6.4222 15.3688 6.5134 15.3167 6.6103 15.2561C6.8056 15.134 7.0518 14.96 7.3291 14.7411C7.8844 14.303 8.5831 13.6705 9.2692 12.8832C10.6317 11.3196 12 9.0808 12 6.5C12 3.18629 9.3137 0.5 6 0.5ZM5 6.5C5 5.9477 5.4477 5.5 6 5.5C6.5523 5.5 7 5.9477 7 6.5C7 7.0523 6.5523 7.5 6 7.5C5.4477 7.5 5 7.0523 5 6.5ZM6 4.5C4.8954 4.5 4 5.39543 4 6.5C4 7.6046 4.8954 8.5 6 8.5C7.1046 8.5 8 7.6046 8 6.5C8 5.39543 7.1046 4.5 6 4.5Z" fill="#1F2026" />
</svg>