<svg width="17" height="16" viewBox="0 0 17 16" fill="none" xmlns="http://www.w3.org/2000/svg">
  <path fill-rule="evenodd" clip-rule="evenodd" d="M12.34 6.5C12.34 9.2614 10.1014 11.5 7.34 11.5C4.57858 11.5 2.34 9.2614 2.34 6.5C2.34 3.73858 4.57858 1.5 7.34 1.5C10.1014 1.5 12.34 3.73858 12.34 6.5ZM11.1798 11.7451C10.104 12.5341 8.7764 13 7.34 13C3.75015 13 0.839996 10.0899 0.839996 6.5C0.839996 2.91015 3.75015 0 7.34 0C10.9299 0 13.84 2.91015 13.84 6.5C13.84 7.9364 13.3741 9.264 12.5851 10.3398L16.549 14.3036C16.937 14.6917 16.937 15.3209 16.549 15.709C16.1609 16.097 15.5317 16.097 15.1436 15.709L11.1798 11.7451Z" fill="#4D4F59" />
</svg>