<svg width="173" height="19" viewBox="0 0 173 19" fill="none" xmlns="http://www.w3.org/2000/svg">
  <path d="M94.192 4.43597C91.804 4.43597 90 5.4097 89.101 6.8772C88.195 5.4097 86.22 4.43597 84.161 4.43597C80.114 4.43597 78.049 6.9938 78.049 10.1688V17.7806H81.829V10.7037C81.829 9.1951 82.631 7.851 84.456 7.851C86.288 7.851 87.235 9.1333 87.235 10.6488V17.7806H91.029V10.6488C91.029 9.1265 91.921 7.851 93.739 7.851C95.571 7.851 96.421 9.1951 96.421 10.7037V17.7806H100.202V10.1688C100.195 6.9938 98.246 4.43597 94.192 4.43597Z" fill="#7000FF" />
  <path d="M117.051 13.1861V4.6897H113.312L113.34 6.7538C112.523 5.54 111.096 4.43597 108.558 4.43597C104.194 4.43597 101.951 7.8236 101.951 11.2249C101.869 14.6673 104.407 18.0892 108.373 18.0892C110.472 18.0892 112.393 17.1566 113.312 15.5177C113.683 16.6011 114.623 17.7875 116.571 17.7875H118.732V14.6125H118.128C117.374 14.6125 117.051 14.3313 117.051 13.1861ZM109.347 14.8113C107.199 14.8113 105.594 13.3301 105.594 11.2523C105.594 9.2019 107.199 7.7481 109.347 7.7481C111.563 7.7481 113.168 9.2019 113.168 11.2523C113.168 13.3301 111.563 14.8113 109.347 14.8113Z" fill="#7000FF" />
  <path d="M121.14 9.1539V17.7806H124.92V11.9929C124.92 9.75051 126.546 8.3104 128.618 8.3104H131.088V4.41537H129.236C126.951 4.41537 125.284 6.3629 124.92 7.4944V7.0966V4.68283H121.14V9.1539Z" fill="#7000FF" />
  <path d="M133.325 17.7806H137.105V11.3688L142.978 17.7806H147.437L141.352 11.0534L146.971 4.68967H142.525L137.105 10.8271V0.636902H133.325V17.7806Z" fill="#7000FF" />
  <path d="M151.862 12.2604C151.862 13.7004 152.61 15.1542 155.025 15.1542C157.241 15.1542 157.563 13.8239 157.563 13.8239H161.714C161.714 13.8239 161.33 18.0892 155.025 18.0892C150.634 18.0892 147.883 15.6342 147.883 11.2523C147.883 6.8635 150.634 4.43597 154.984 4.43597C159.272 4.43597 162.037 6.8635 162.037 11.2523C162.037 11.7323 161.954 12.2672 161.954 12.2672H151.862V12.2604ZM151.91 9.9562H157.996C157.996 8.8865 157.378 7.371 154.977 7.371C152.61 7.371 151.91 8.8933 151.91 9.9562Z" fill="#7000FF" />
  <path d="M170.661 14.4959C169.364 14.4959 168.897 13.9198 168.897 12.0957V7.4807H172.993V4.44281H168.897V1.83011H166.853L163.21 5.3137V7.4875H165.117V12.5963C165.117 16.2651 166.908 17.808 170.661 17.808H173V14.5027H170.661V14.4959Z" fill="#7000FF" />
  <path d="M41.6802 11.4854C41.6802 13.5564 40.507 14.5164 38.7644 14.5164C37.0218 14.5164 35.8898 13.577 35.8898 11.4854V4.64166H32.1301V11.6157C32.1301 16.1622 35.9309 17.9383 38.7918 17.9383C41.6527 17.9383 45.4604 16.1554 45.4604 11.6157V4.64166H41.7007L41.6802 11.4854Z" fill="#7000FF" />
  <path d="M28.9468 7.8167V4.64166H16.728V7.8167H23.966L16.4398 14.5233V17.6983H29.4133V14.5233H21.4344L28.9468 7.8167Z" fill="#7000FF" />
  <path d="M64.286 4.39484C61.905 4.39484 60.108 5.3617 59.216 6.8361C58.31 5.3617 56.3414 4.39484 54.2969 4.39484C50.2766 4.39484 48.1841 6.9527 48.1841 10.1208V17.6983H51.9437V10.6489C51.9437 9.1334 52.7395 7.803 54.5645 7.803C54.935 7.7824 55.3054 7.8373 55.6553 7.9676C56.0052 8.0979 56.3208 8.3036 56.5815 8.571C56.8422 8.8316 57.048 9.1539 57.1784 9.5037C57.3088 9.8534 57.3636 10.2237 57.3431 10.594V17.6983H61.103V10.594C61.103 9.0785 61.995 7.803 63.799 7.803C65.603 7.803 66.475 9.1334 66.475 10.6489V17.6983H70.234V10.1277C70.234 6.9664 68.293 4.40169 64.252 4.40169L64.286 4.39484Z" fill="#7000FF" />
  <path d="M10.1966 11.4854C10.1966 13.5564 9.02351 14.5164 7.29461 14.5164C5.56571 14.5164 4.40621 13.577 4.40621 11.4854V4.64166H0.646606V11.6157C0.646606 16.1622 4.43371 17.9383 7.30831 17.9383C10.1829 17.9383 13.9631 16.1554 13.9631 11.6157V4.64166H10.2035L10.1966 11.4854Z" fill="#7000FF" />
</svg>